<mxfile host="app.diagrams.net" modified="2021-11-01T13:32:02.280Z" agent="5.0 (Windows NT 6.1; Win64; x64) AppleWebKit/537.36 (KHTML, like Gecko) Chrome/92.0.4515.131 Safari/537.36" etag="fxQgz-BDgFA1ixOd7eHC" version="15.6.3" type="github">
  <diagram id="dpu41FX9FjATtCo1FTed" name="Page-1">
    <mxGraphModel dx="1422" dy="800" grid="1" gridSize="10" guides="1" tooltips="1" connect="1" arrows="1" fold="1" page="1" pageScale="1" pageWidth="827" pageHeight="1169" math="0" shadow="0">
      <root>
        <mxCell id="0" />
        <mxCell id="1" parent="0" />
        <mxCell id="QrGwPt06TaYHlrm7atau-1" value="专业金融知识" style="rounded=1;whiteSpace=wrap;html=1;" vertex="1" parent="1">
          <mxGeometry x="220" y="250" width="90" height="50" as="geometry" />
        </mxCell>
        <mxCell id="QrGwPt06TaYHlrm7atau-2" value="静态" style="ellipse;whiteSpace=wrap;html=1;" vertex="1" parent="1">
          <mxGeometry x="130" y="250" width="70" height="50" as="geometry" />
        </mxCell>
        <mxCell id="QrGwPt06TaYHlrm7atau-3" value="个人投资理念" style="rounded=1;whiteSpace=wrap;html=1;" vertex="1" parent="1">
          <mxGeometry x="340" y="250" width="90" height="50" as="geometry" />
        </mxCell>
        <mxCell id="QrGwPt06TaYHlrm7atau-4" value="动态" style="ellipse;whiteSpace=wrap;html=1;" vertex="1" parent="1">
          <mxGeometry x="130" y="140" width="70" height="50" as="geometry" />
        </mxCell>
        <mxCell id="QrGwPt06TaYHlrm7atau-5" value="多维度&lt;br&gt;不确定&lt;br&gt;复合" style="rounded=1;whiteSpace=wrap;html=1;" vertex="1" parent="1">
          <mxGeometry x="220" y="120" width="90" height="120" as="geometry" />
        </mxCell>
        <mxCell id="QrGwPt06TaYHlrm7atau-6" value="心态&lt;br&gt;理念&lt;br&gt;执行" style="rounded=1;whiteSpace=wrap;html=1;" vertex="1" parent="1">
          <mxGeometry x="340" y="120" width="90" height="120" as="geometry" />
        </mxCell>
        <mxCell id="QrGwPt06TaYHlrm7atau-7" value="人&amp;nbsp; 人性" style="rounded=1;whiteSpace=wrap;html=1;" vertex="1" parent="1">
          <mxGeometry x="220" y="320" width="210" height="40" as="geometry" />
        </mxCell>
      </root>
    </mxGraphModel>
  </diagram>
</mxfile>
